<?xml version="1.0" standalone="no"?>
<!DOCTYPE svg PUBLIC "-//W3C//DTD SVG 20010904//EN"
 "http://www.w3.org/TR/2001/REC-SVG-20010904/DTD/svg10.dtd">
<svg version="1.0" xmlns="http://www.w3.org/2000/svg"
 width="600.000000pt" height="600.000000pt" viewBox="0 0 600.000000 600.000000"
 preserveAspectRatio="xMidYMid meet">
<metadata>
Created by potrace 1.14, written by Peter Selinger 2001-2017
</metadata>
<g transform="translate(0.000000,600.000000) scale(0.100000,-0.100000)"
fill="#000000" stroke="none">
<path d="M1050 2935 l0 -1805 385 0 385 0 0 745 0 745 735 0 735 0 0 315 0
315 -735 0 -735 0 0 430 0 430 815 0 815 0 0 315 0 315 -1200 0 -1200 0 0
-1805z"/>
<path d="M4180 3498 c0 -728 -4 -1289 -10 -1354 -15 -173 -58 -274 -150 -357
-65 -58 -141 -88 -247 -94 -269 -18 -445 126 -478 391 l-7 56 -379 0 -379 0 0
-43 c0 -69 19 -206 41 -291 43 -169 123 -301 261 -432 107 -100 226 -171 365
-217 192 -63 252 -72 503 -72 243 0 313 9 475 62 409 133 684 460 745 888 6
44 10 568 10 1388 l0 1317 -375 0 -375 0 0 -1242z"/>
</g>
</svg>
